<?xml version="1.0" encoding="utf-8"?>
<!-- Generator: Adobe Illustrator 18.1.1, SVG Export Plug-In . SVG Version: 6.00 Build 0)  -->
<svg version="1.1" id="Layer_1" xmlns="http://www.w3.org/2000/svg" xmlns:xlink="http://www.w3.org/1999/xlink" x="0px" y="0px"
	 viewBox="0 0 303.8 206.7" enable-background="new 0 0 303.8 206.7" xml:space="preserve">
<g>
	<g>
		<path fill="#FF5200" d="M240.7,150.6l-42.2,0c-3.9,0-7-3.1-7-7c0-3.9,3.1-7,7-7l42.2,0c3.9,0,7,3.1,7,7
			C247.7,147.5,244.5,150.6,240.7,150.6z"/>
	</g>
	<g>
		<path fill="#56565a" d="M91.3,97.3c-2.8,0-8.6-4.4-13.5-4.4c-2.7,0-5.1,1.3-5.1,4.2c0,7,26.1,6,26.1,23.1c0,10-8.5,17.7-21.4,17.7
			c-8.5,0-21-4.8-21-11.6c0-2.3,2.3-6.7,6.5-6.7c5.9,0,8.5,5.1,15.6,5.1c4.6,0,6-1.5,6-4.3c0-6.9-26.1-5.9-26.1-23.1
			c0-10.4,8.5-17.6,20.4-17.6c7.4,0,18.8,3.4,18.8,10.9C97.4,94.1,94.8,97.3,91.3,97.3z"/>
		<path fill="#56565a" d="M119.9,66.1c0,4.7-3.8,8.7-8.5,8.7c-4.5,0-8.5-4.1-8.5-8.7c0-4.3,4-8.3,8.5-8.3
			C115.9,57.8,119.9,61.7,119.9,66.1z M103.9,88.8c0-5,3.1-8.4,7.5-8.4c4.4,0,7.5,3.3,7.5,8.4v40.1c0,5-3.1,8.4-7.5,8.4
			c-4.4,0-7.5-3.3-7.5-8.4V88.8z"/>
		<path fill="#56565a" d="M143.1,66.1c0,4.7-3.8,8.7-8.5,8.7c-4.5,0-8.5-4.1-8.5-8.7c0-4.3,4-8.3,8.5-8.3
			C139.1,57.8,143.1,61.7,143.1,66.1z M127.1,88.8c0-5,3.1-8.4,7.5-8.4c4.4,0,7.5,3.3,7.5,8.4v40.1c0,5-3.1,8.4-7.5,8.4
			c-4.4,0-7.5-3.3-7.5-8.4V88.8z"/>
		<path fill="#56565a" d="M150.3,64.5c0-5,3.1-8.4,7.5-8.4c4.4,0,7.5,3.3,7.5,8.4v64.4c0,5-3.1,8.4-7.5,8.4c-4.4,0-7.5-3.3-7.5-8.4
			V64.5z"/>
		<path fill="#56565a" d="M189.5,66.1c0,4.7-3.8,8.7-8.5,8.7c-4.5,0-8.5-4.1-8.5-8.7c0-4.3,4-8.3,8.5-8.3
			C185.5,57.8,189.5,61.7,189.5,66.1z M173.5,88.8c0-5,3.1-8.4,7.5-8.4c4.4,0,7.5,3.3,7.5,8.4v40.1c0,5-3.1,8.4-7.5,8.4
			c-4.4,0-7.5-3.3-7.5-8.4V88.8z"/>
	</g>
</g>
</svg>
